HIERARCHY
ROOT reference
{
  OFFSET 0 0 0
  CHANNELS 6 Xposition Yposition Zposition Zrotation Xrotation Yrotation
  JOINT root
  {
    OFFSET 58.8117 94.2893 -169.899
    CHANNELS 6 Xposition Yposition Zposition Zrotation Xrotation Yrotation
    JOINT lhipjoint
    {
      OFFSET 0 0 0
      CHANNELS 6 Xposition Yposition Zposition Zrotation Xrotation Yrotation
      JOINT lfemur
      {
        OFFSET 18.7027 -20.3519 7.05291
        CHANNELS 6 Xposition Yposition Zposition Zrotation Xrotation Yrotation
        JOINT ltibia
        {
          OFFSET -2.26639e-05 -85.7245 0
          CHANNELS 6 Xposition Yposition Zposition Zrotation Xrotation Yrotation
          JOINT lfoot
          {
            OFFSET -2.1749e-05 -82.2641 0
            CHANNELS 6 Xposition Yposition Zposition Zrotation Xrotation Yrotation
            JOINT ltoes
            {
              OFFSET 0 -24.2238 -6.50353
              CHANNELS 6 Xposition Yposition Zposition Zrotation Xrotation Yrotation
              End Site
              {
                OFFSET 0 -12.5588 0
              }
            }
          }
        }
      }
    }
    JOINT rhipjoint
    {
      OFFSET 0 0 0
      CHANNELS 6 Xposition Yposition Zposition Zrotation Xrotation Yrotation
      JOINT rfemur
      {
        OFFSET -18.183 -20.3519 7.0529
        CHANNELS 6 Xposition Yposition Zposition Zrotation Xrotation Yrotation
        JOINT rtibia
        {
          OFFSET 2.26449e-05 -85.6526 0
          CHANNELS 6 Xposition Yposition Zposition Zrotation Xrotation Yrotation
          JOINT rfoot
          {
            OFFSET 2.15348e-05 -81.4536 0
            CHANNELS 6 Xposition Yposition Zposition Zrotation Xrotation Yrotation
            JOINT rtoes
            {
              OFFSET 0 -24.0868 -7.59939
              CHANNELS 6 Xposition Yposition Zposition Zrotation Xrotation Yrotation
              End Site
              {
                OFFSET 0 -12.5949 0
              }
            }
          }
        }
      }
    }
    JOINT lowerback
    {
      OFFSET 0 0 0
      CHANNELS 6 Xposition Yposition Zposition Zrotation Xrotation Yrotation
      JOINT upperback
      {
        OFFSET 0.221397 23.193 -1.59304
        CHANNELS 6 Xposition Yposition Zposition Zrotation Xrotation Yrotation
        JOINT thorax
        {
          OFFSET 0.115265 23.3043 -0.668419
          CHANNELS 6 Xposition Yposition Zposition Zrotation Xrotation Yrotation
          JOINT lowerneck
          {
            OFFSET 0.0170354 23.346 0.0907241
            CHANNELS 6 Xposition Yposition Zposition Zrotation Xrotation Yrotation
            JOINT upperneck
            {
              OFFSET 0.0804846 17.6909 1.68976
              CHANNELS 6 Xposition Yposition Zposition Zrotation Xrotation Yrotation
              JOINT head
              {
                OFFSET 0.387048 17.6153 -1.12954
                CHANNELS 6 Xposition Yposition Zposition Zrotation Xrotation Yrotation
                End Site
                {
                  OFFSET 0.147332 18.3512 -0.594341
                }
              }
            }
          }
          JOINT lclavicle
          {
            OFFSET 0.0170354 23.346 0.0907241
            CHANNELS 6 Xposition Yposition Zposition Zrotation Xrotation Yrotation
            JOINT lhumerus
            {
              OFFSET 39.9858 10.2092 -1.96018
              CHANNELS 6 Xposition Yposition Zposition Zrotation Xrotation Yrotation
              JOINT lradius
              {
                OFFSET 0 -54.9219 0
                CHANNELS 6 Xposition Yposition Zposition Zrotation Xrotation Yrotation
                JOINT lwrist
                {
                  OFFSET 0 -37.8803 0
                  CHANNELS 6 Xposition Yposition Zposition Zrotation Xrotation Yrotation
                  JOINT lhand
                  {
                    OFFSET 0 -18.9402 0
                    CHANNELS 6 Xposition Yposition Zposition Zrotation Xrotation Yrotation
                    JOINT lfingers
                    {
                      OFFSET 0 -7.46393 0
                      CHANNELS 6 Xposition Yposition Zposition Zrotation Xrotation Yrotation
                      End Site
                      {
                        OFFSET 0 -6.01762 0
                      }
                    }
                  }
                  JOINT lthumb
                  {
                    OFFSET 0 -18.9402 0
                    CHANNELS 6 Xposition Yposition Zposition Zrotation Xrotation Yrotation
                    End Site
                    {
                      OFFSET 0 -8.64013 0
                    }
                  }
                }
              }
            }
          }
          JOINT rclavicle
          {
            OFFSET 0.0170354 23.346 0.0907241
            CHANNELS 6 Xposition Yposition Zposition Zrotation Xrotation Yrotation
            JOINT rhumerus
            {
              OFFSET -39.4887 8.57888 -3.68193
              CHANNELS 6 Xposition Yposition Zposition Zrotation Xrotation Yrotation
              JOINT rradius
              {
                OFFSET 0 -56.7435 0
                CHANNELS 6 Xposition Yposition Zposition Zrotation Xrotation Yrotation
                JOINT rwrist
                {
                  OFFSET 0 -37.9793 0
                  CHANNELS 6 Xposition Yposition Zposition Zrotation Xrotation Yrotation
                  JOINT rhand
                  {
                    OFFSET 0 -18.9897 0
                    CHANNELS 6 Xposition Yposition Zposition Zrotation Xrotation Yrotation
                    JOINT rfingers
                    {
                      OFFSET 0 -8.24547 0
                      CHANNELS 6 Xposition Yposition Zposition Zrotation Xrotation Yrotation
                      End Site
                      {
                        OFFSET 0 -6.64771 0
                      }
                    }
                  }
                  JOINT rthumb
                  {
                    OFFSET 0 -18.9897 0
                    CHANNELS 6 Xposition Yposition Zposition Zrotation Xrotation Yrotation
                    End Site
                    {
                      OFFSET 0 -9.54482 0
                    }
                  }
                }
              }
            }
          }
        }
      }
    }
  }
}
MOTION
Frames:	6
Frame Time:	0.0416667
0 0 0 0 0 -0 56.7024 98.7146 -4.05381 1.98673 -5.42229 -3.31144 0 0 0 -1.04362e-15 0 -0 18.7027 -20.3519 7.05291 -8.93048 -6.90961 -1.35485 -2.26639e-05 -85.7245 0 1.39149e-15 29.1442 -0 -2.1749e-05 -82.2641 1.77636e-15 144.17 -71.2384 142.673 -4.6047e-06 -24.2238 -6.50353 8.24848e-16 -2.36088 7.21207e-16 0 0 0 -1.04362e-15 0 -0 -18.183 -20.3519 7.0529 -0.488525 -13.5428 3.29806 2.26449e-05 -85.6526 7.10543e-15 4.43967e-16 70.9411 -4.56571e-16 2.15348e-05 -81.4536 -3.55271e-15 -98.5218 -72.2965 -98.1237 2.94741e-06 -24.0868 -7.59939 1.91381e-15 -16.5179 -1.65873e-15 0 0 0 -1.48101 5.85237 -0.0390551 0.221397 23.193 -1.59304 0.0888378 1.64948 -0.138204 0.115265 23.3043 -0.668419 0.928565 -1.57924 -0.0671191 0.0170354 23.346 0.0907241 4.88953 -8.15098 8.05567 0.0804846 17.6909 1.68976 -4.88387 5.59892 10.602 0.387048 17.6153 -1.12954 -1.61765 3.76092 5.16376 0.0170354 23.346 0.0907241 -1.41572e-14 0 -1.66979e-14 39.9858 10.2092 -1.96018 -1.18978 3.9643 -172.537 2.13548e-09 -54.9219 1.23291e-09 -1.85921e-16 38.2854 -2.026e-15 1.47281e-09 -37.8803 8.50349e-10 -9.40061e-16 -3.50835e-15 -120 -5.32907e-15 -18.9402 -8.50321e-10 23.7513 -21.7244 -3.42372e-15 -3.55271e-15 -7.46393 -3.35191e-10 -3.97569e-15 7.12502 6.41061e-15 -5.32907e-15 -18.9402 -8.50321e-10 -6.10102e-15 4.67497 -3.19117e-15 0.0170354 23.346 0.0907241 -1.41572e-14 0 -1.66979e-14 -39.4887 8.57888 -3.68193 -4.41311 -1.74795 -177.543 -2.20627e-09 -56.7435 1.27378e-09 -2.15523e-16 31.1463 1.16133e-15 -1.47664e-09 -37.9793 8.5253e-10 3.80496e-16 -2.27923e-15 108.955 0 -18.9897 -8.52658e-10 16.0971 -21.6753 -1.71128e-15 1.42109e-14 -8.24547 -3.70232e-10 -9.26833e-15 7.12502 -2.20365e-15 0 -18.9897 -8.52658e-10 31.1698 4.72228 -1.11699e-14 
0 0 0 0 0 -0 56.7216 98.7603 -3.19777 1.66304 -5.467 -2.90542 0 0 0 -2.20695e-32 -1.59028e-15 -7.95139e-16 18.7027 -20.3519 7.05291 -8.64602 -6.36182 -1.58452 -2.26639e-05 -85.7245 3.55271e-15 2.72383e-15 29.1849 -2.73228e-15 -2.1749e-05 -82.2641 3.55271e-15 144.484 -71.1015 142.97 -4.6047e-06 -24.2238 -6.50353 8.13218e-16 -5.19661 1.99605e-16 0 0 0 -2.20695e-32 -1.59028e-15 -7.95139e-16 -18.183 -20.3519 7.0529 0.0238376 -14.6896 3.3847 2.26449e-05 -85.6526 -3.55271e-15 2.9509e-17 70.6261 -1.49808e-16 2.15348e-05 -81.4536 3.55271e-15 -101.869 -71.6734 -101.282 2.94741e-06 -24.0868 -7.59939 -2.55059e-15 -16.8007 -3.32237e-15 0 0 0 -1.20183 6.12234 -0.0804702 0.221397 23.193 -1.59304 0.28438 1.65201 -0.176454 0.115265 23.3043 -0.668419 0.977156 -1.72631 -0.0857148 0.0170354 23.346 0.0907241 4.73506 -8.14781 7.92924 0.0804846 17.6909 1.68976 -4.96035 5.67825 10.4602 0.387048 17.6153 -1.12954 -1.62505 3.7781 5.08651 0.0170354 23.346 0.0907241 -1.43684e-14 0 -1.59028e-14 39.9858 10.2092 -1.96018 -0.936491 3.50261 -173.892 2.13548e-09 -54.9219 1.23291e-09 4.63639e-16 39.7974 -1.03492e-15 1.47281e-09 -37.8803 8.50321e-10 3.85378e-14 -3.50835e-15 -120 1.77636e-15 -18.9402 -8.50335e-10 24.2731 -21.6387 3.42169e-15 3.55271e-15 -7.46393 -3.35149e-10 -2.5842e-15 7.12502 -4.80796e-15 1.77636e-15 -18.9402 -8.50335e-10 -3.44527e-15 4.75768 3.19155e-15 0.0170354 23.346 0.0907241 -1.43684e-14 0 -1.59028e-14 -39.4887 8.57888 -3.68193 -4.34521 -0.976811 -178.507 -2.20627e-09 -56.7435 1.27378e-09 2.77199e-15 30.1162 -6.89419e-15 -1.47664e-09 -37.9793 8.52523e-10 -3.88935e-16 2.30365e-15 109.166 0 -18.9897 -8.52658e-10 16.0018 -21.8057 -6.85133e-15 0 -8.24547 -3.70232e-10 6.68413e-15 7.12502 -2.60431e-15 0 -18.9897 -8.52658e-10 31.0717 4.59635 -1.67518e-14 
0 0 0 0 0 -0 56.7436 98.7321 -2.34409 1.5068 -5.30114 -2.44289 0 0 0 -0 -7.95139e-16 -0 18.7027 -20.3519 7.05291 -8.52833 -6.02139 -1.77932 -2.26639e-05 -85.7245 0 -2.46225e-16 29.2341 9.11197e-16 -2.1749e-05 -82.2641 -1.77636e-15 145.561 -70.8974 144.032 -4.6047e-06 -24.2238 -6.50353 -2.35258e-15 -6.28383 2.99979e-16 0 0 0 -0 -7.95139e-16 -0 -18.183 -20.3519 7.0529 0.295948 -16.0944 3.37026 2.26449e-05 -85.6526 0 -1.76741e-16 70.204 2.93476e-16 2.15348e-05 -81.4536 -3.55271e-15 -106.198 -71.11 -105.368 2.94741e-06 -24.0868 -7.59939 5.22908e-15 -16.0746 1.65498e-15 0 0 0 -1.0199 6.19348 -0.184206 0.221397 23.193 -1.59304 0.387601 1.53358 -0.301998 0.115265 23.3043 -0.668419 0.992305 -1.88489 -0.147143 0.0170354 23.346 0.0907241 4.57423 -7.79959 7.76176 0.0804846 17.6909 1.68976 -4.93649 5.4547 10.257 0.387048 17.6153 -1.12954 -1.63345 3.61739 4.99079 0.0170354 23.346 0.0907241 -1.40081e-14 -9.93923e-17 -1.66979e-14 39.9858 10.2092 -1.96018 -0.534653 3.24105 -175.253 2.13548e-09 -54.9219 1.23291e-09 -8.84336e-17 41.4088 -2.12034e-15 1.47284e-09 -37.8803 8.50335e-10 -9.40061e-16 -3.50835e-15 -120 8.88178e-15 -18.9402 -8.50335e-10 24.5113 -21.8332 -3.42632e-15 -3.55271e-15 -7.46393 -3.35177e-10 -3.18055e-15 7.12502 -0 8.88178e-15 -18.9402 -8.50335e-10 6.1069e-15 4.56977 3.1907e-15 0.0170354 23.346 0.0907241 -1.40081e-14 -9.93923e-17 -1.66979e-14 -39.4887 8.57888 -3.68193 -4.25971 -0.0426248 -179.061 -2.20627e-09 -56.7435 1.27378e-09 1.12764e-15 29.1655 -3.18705e-15 -1.47664e-09 -37.9793 8.52523e-10 -2.37374e-14 -1.03881e-14 108.664 0 -18.9897 -8.52657e-10 16.6345 -21.7581 -1.71226e-15 7.10543e-15 -8.24547 -3.70235e-10 6.60959e-15 7.12502 -2.00332e-15 0 -18.9897 -8.52657e-10 31.7053 4.6424 -1.19663e-14 
0 0 0 0 0 -0 56.7775 98.6717 -1.44458 1.80609 -5.1507 -1.95284 0 0 0 -6.4605e-16 -7.95139e-16 -0 18.7027 -20.3519 7.05291 -8.88244 -5.55535 -1.9989 -2.26639e-05 -85.7245 0 -7.95139e-16 29.1807 -0 -2.1749e-05 -82.2641 1.77636e-15 147.495 -70.4796 145.939 -4.6047e-06 -24.2238 -6.50353 -6.12103e-17 -4.69418 -7.47951e-16 0 0 0 -6.4605e-16 -7.95139e-16 -0 -18.183 -20.3519 7.0529 0.00875365 -17.4422 3.28171 2.26449e-05 -85.6526 0 -4.86348e-16 69.6534 5.71716e-16 2.15348e-05 -81.4536 1.06581e-14 -108.287 -70.9439 -107.346 2.94741e-06 -24.0868 -7.59939 -2.06511e-15 -16.6249 -1.65965e-15 0 0 0 -1.3825 6.11894 -0.32738 0.221397 23.193 -1.59304 0.404658 1.47921 -0.514292 0.115265 23.3043 -0.668419 1.22904 -1.89038 -0.251304 0.0170354 23.346 0.0907241 4.64208 -7.54628 7.69667 0.0804846 17.6909 1.68976 -5.08551 5.35859 10.1811 0.387048 17.6153 -1.12954 -1.71761 3.55005 4.95377 0.0170354 23.346 0.0907241 -1.41945e-14 0 -1.63003e-14 39.9858 10.2092 -1.96018 -0.268 2.94324 -176.232 2.13548e-09 -54.9219 1.23291e-09 2.70431e-15 43.1316 -8.30783e-15 1.47283e-09 -37.8803 8.50335e-10 -1.30934e-14 3.50835e-15 -120 0 -18.9402 -8.50335e-10 24.6246 -22.0577 -0 3.55271e-15 -7.46393 -3.35177e-10 -2.98177e-15 7.12502 -1.60265e-15 0 -18.9402 -8.50335e-10 0 4.35297 -0 0.0170354 23.346 0.0907241 -1.41945e-14 0 -1.63003e-14 -39.4887 8.57888 -3.68193 -4.20582 0.795852 -179.519 -2.20627e-09 -56.7435 1.27378e-09 -7.45443e-17 28.2899 -0 -1.47664e-09 -37.9793 8.52545e-10 -1.59679e-15 1.00557e-14 108.046 0 -18.9897 -8.52659e-10 17.4992 -21.7564 1.71224e-15 7.10543e-15 -8.24547 -3.70235e-10 -6.46051e-16 7.12502 5.20862e-15 0 -18.9897 -8.52659e-10 32.5701 4.64404 -7.17982e-15 
0 0 0 0 0 -0 56.7938 98.5475 -0.533582 2.14415 -5.21456 -1.5041 0 0 0 2.48481e-17 0 -3.97569e-16 18.7027 -20.3519 7.05291 -9.33525 -4.73616 -2.15299 -2.26639e-05 -85.7245 0 7.38149e-16 28.957 -9.08747e-16 -2.1749e-05 -82.2641 7.10543e-15 148.828 -70.1133 147.246 -4.6047e-06 -24.2238 -6.50353 2.74229e-17 -4.50732 3.48952e-16 0 0 0 2.48481e-17 0 -3.97569e-16 -18.183 -20.3519 7.0529 -0.34098 -18.5026 3.32076 2.26449e-05 -85.6526 0 -9.34839e-16 68.9727 1.10801e-15 2.15348e-05 -81.4536 -1.06581e-14 -109.554 -71.0713 -108.571 2.94741e-06 -24.0868 -7.59939 -4.9539e-16 -17.3024 -1.66565e-15 0 0 0 -1.73569 6.08246 -0.40881 0.221397 23.193 -1.59304 0.365733 1.63134 -0.64399 0.115265 23.3043 -0.668419 1.39412 -1.70571 -0.317642 0.0170354 23.346 0.0907241 4.48877 -7.54252 7.65237 0.0804846 17.6909 1.68976 -4.92966 5.21308 10.1195 0.387048 17.6153 -1.12954 -1.65055 3.47664 4.92717 0.0170354 23.346 0.0907241 -1.41945e-14 0 -1.70955e-14 39.9858 10.2092 -1.96018 -0.0270759 2.35094 -177.047 2.13548e-09 -54.9219 1.23291e-09 -5.90142e-15 44.7523 1.75298e-14 1.47283e-09 -37.8803 8.50335e-10 9.40061e-16 3.50835e-15 -120 -3.55271e-15 -18.9402 -8.50335e-10 23.9305 -22.2591 -3.43665e-15 0 -7.46393 -3.35149e-10 6.75868e-15 7.12502 -3.20531e-15 -3.55271e-15 -18.9402 -8.50335e-10 6.47673e-15 4.15853 -1.59448e-15 0.0170354 23.346 0.0907241 -1.41945e-14 0 -1.70955e-14 -39.4887 8.57888 -3.68193 -3.97191 1.25494 179.319 -2.20627e-09 -56.7435 1.27378e-09 4.02777e-15 27.1821 -1.8771e-14 -1.47664e-09 -37.9793 8.52516e-10 -3.10402e-14 3.44422e-14 108.456 0 -18.9897 -8.52656e-10 17.1082 -21.6344 -0 0 -8.24547 -3.70235e-10 3.10601e-15 7.12502 6.00995e-16 0 -18.9897 -8.52656e-10 32.1817 4.76177 -1.11705e-14 
0 0 0 0 0 -0 56.8288 98.4131 0.472861 2.58556 -5.54914 -1.02419 0 0 0 -8.32411e-16 0 -1.98785e-16 18.7027 -20.3519 7.05291 -9.89982 -3.48996 -2.28091 -2.26639e-05 -85.7245 0 1.59028e-15 28.689 -0 -2.1749e-05 -82.2641 -1.77636e-15 149.559 -69.7751 147.942 -4.6047e-06 -24.2238 -6.50353 8.50906e-16 -5.82484 5.49495e-16 0 0 0 -8.32411e-16 0 -1.98785e-16 -18.183 -20.3519 7.0529 -0.828311 -19.0596 3.38488 2.26449e-05 -85.6526 7.10543e-15 -2.98177e-16 68.0619 -0 2.15348e-05 -81.4536 -7.10543e-15 -112.63 -71.2049 -111.536 2.94741e-06 -24.0868 -7.59939 -2.08265e-15 -17.2033 -1.66476e-15 0 0 0 -2.07545 6.12015 -0.512298 0.221397 23.193 -1.59304 0.248732 1.86053 -0.803631 0.115265 23.3043 -0.668419 1.47233 -1.4816 -0.400963 0.0170354 23.346 0.0907241 4.24005 -7.42597 7.64929 0.0804846 17.6909 1.68976 -4.63934 5.04861 10.1166 0.387048 17.6153 -1.12954 -1.52415 3.36296 4.93459 0.0170354 23.346 0.0907241 -1.41758e-14 -1.98785e-16 -1.66979e-14 39.9858 10.2092 -1.96018 0.251418 1.73514 -177.748 2.13547e-09 -54.9219 1.23291e-09 -5.73188e-15 46.2022 1.52223e-14 1.47281e-09 -37.8803 8.50335e-10 4.34897e-15 1.62306e-14 -120 0 -18.9402 -8.50321e-10 22.2116 -22.4689 -0 -1.06581e-14 -7.46393 -3.35177e-10 3.9757e-16 7.12502 -3.20531e-15 0 -18.9402 -8.50321e-10 -1.25023e-14 3.95597 -3.18815e-15 0.0170354 23.346 0.0907241 -1.41758e-14 -1.98785e-16 -1.66979e-14 -39.4887 8.57888 -3.68193 -3.70904 1.72178 178.052 -2.20627e-09 -56.7435 1.27378e-09 7.41924e-16 26.0515 -5.31037e-15 -1.47664e-09 -37.9793 8.52523e-10 3.90773e-14 2.33675e-15 109.453 0 -18.9897 -8.5266e-10 15.4914 -21.5089 -1.70931e-15 0 -8.24547 -3.70235e-10 8.69683e-17 7.12502 -7.01161e-16 0 -18.9897 -8.5266e-10 30.5677 4.88302 -1.43646e-14 
